<svg width="235" height="195" viewBox="0 0 235 195" fill="none" xmlns="http://www.w3.org/2000/svg">
    <path d="M113 163C121.837 163 129 170.163 129 179C129 187.837 121.837 195 113 195C104.164 195 97 187.837 97 179C97 170.163 104.164 163 113 163Z" fill="#BBC8EC"/>
    <path d="M226.752 161.354L3.42652 143.988C1.77451 143.859 0.331424 145.094 0.202957 146.746C0.0744898 148.398 1.30933 149.841 2.96134 149.97L226.287 167.336C227.938 167.465 229.382 166.23 229.511 164.578C229.639 162.926 228.403 161.483 226.752 161.354Z" fill="#9BABD9"/>
    <path d="M165.388 61C174.555 61.001 183.009 65.901 187.5 73.819C191.992 65.901 200.446 61.001 209.613 61C223.633 61 235 73.884 235 87.774C235 122.66 187.5 147 187.5 147C187.5 147 140 122.66 140 87.774C140 73.884 151.367 61 165.388 61Z" fill="#DEE4F8"/>
    <path d="M138.079 23.8109C135.24 23.8109 132.948 21.5191 132.948 18.6805C132.948 18.361 132.698 18.1104 132.379 18.1104C132.059 18.1104 131.808 18.361 131.808 18.6805C131.808 21.5191 129.516 23.8109 126.678 23.8109C126.358 23.8109 126.107 24.0615 126.107 24.381C126.107 24.6997 126.358 24.9511 126.678 24.9511C129.516 24.9511 131.808 27.2421 131.808 30.0808C131.808 30.4003 132.059 30.6516 132.379 30.6516C132.698 30.6516 132.948 30.4003 132.948 30.0808C132.948 27.2421 135.24 24.9511 138.079 24.9511C138.398 24.9511 138.649 24.6997 138.649 24.381C138.649 24.0615 138.398 23.8109 138.079 23.8109Z" fill="#9BABD9"/>
    <path d="M95.8105 0.303223H95.1175C94.7022 0.303223 94.3562 0.602465 94.3562 1.00211C94.0102 5.69446 88.887 10.4862 84.0065 10.919C83.6264 10.9522 83.3145 11.2845 83.3145 11.651V12.349C83.3145 12.7486 83.6264 13.0478 84.0416 13.081C88.887 13.4143 93.8367 18.2393 94.3562 22.9316C94.3913 23.3644 94.7714 23.6968 95.2559 23.6968H95.7413C96.2257 23.6968 96.6059 23.3644 96.641 22.8985C97.0562 17.6408 101.452 13.3149 106.921 13.0478C107.371 13.0157 107.683 12.6823 107.683 12.2495V11.651C107.683 11.2183 107.337 10.8849 106.921 10.8518C101.417 10.5857 96.987 6.22667 96.641 0.901708C96.5718 0.602465 96.2257 0.303223 95.8105 0.303223Z" fill="#DEE4F8"/>
    <path d="M36.9648 37C32.1988 37 28.3348 40.868 28.3348 45.639C28.3348 45.888 28.3478 46.133 28.3688 46.376C27.5148 46.189 26.6298 46.089 25.7198 46.089C18.8818 46.089 13.3398 51.638 13.3398 58.482C13.3398 60.015 13.6198 61.482 14.1278 62.838C7.80976 63.399 2.85576 68.709 2.85576 75.179C2.85576 79.286 4.85276 82.924 7.92576 85.18C4.85076 86.197 2.47776 88.912 2.06176 92.344C1.50876 96.905 4.61476 101.066 9.07176 101.881C7.68676 103.94 6.87876 106.42 6.87876 109.089C6.87876 116.227 12.6588 122.014 19.7898 122.014C22.1088 122.014 24.2828 121.398 26.1648 120.326C27.0618 124.824 31.0278 128.214 35.7838 128.214C41.2018 128.214 45.5948 123.817 45.5948 118.393V45.639C45.5948 40.868 41.7308 37 36.9648 37Z" fill="#DEE4F8"/>
    <path d="M35.1708 97.306C34.8898 96.65 34.1288 96.344 33.4718 96.625C31.4918 97.47 29.8578 98.975 28.8508 100.871C26.9068 100.412 24.8738 100.584 23.0018 101.384C22.3438 101.665 22.0388 102.426 22.3188 103.083C22.6008 103.741 23.3618 104.045 24.0188 103.764C25.6968 103.047 27.5528 103.027 29.2448 103.705C30.9378 104.383 32.2628 105.679 32.9788 107.356C33.1568 107.774 33.2948 108.207 33.3858 108.648C33.5288 109.334 34.1908 109.78 34.8768 109.659C34.8898 109.656 34.9038 109.654 34.9178 109.651C35.6178 109.504 36.0668 108.82 35.9208 108.12C35.7948 107.512 35.6058 106.913 35.3598 106.338C34.5318 104.397 33.1068 102.827 31.2888 101.819C32.0258 100.571 33.1478 99.579 34.4888 99.005C35.1458 98.725 35.4518 97.964 35.1708 97.306Z" fill="#C0CCEE"/>
    <path d="M28.5553 72.402C28.5433 72.427 28.5313 72.452 28.5183 72.475C27.8573 73.789 27.4703 75.256 27.4193 76.802C27.3513 78.875 27.8973 80.895 28.9973 82.643C29.3783 83.248 29.1983 84.046 28.5933 84.427C28.3783 84.563 28.1403 84.626 27.9043 84.626C27.4743 84.626 27.0543 84.412 26.8073 84.022C25.4313 81.834 24.7473 79.31 24.8323 76.718C24.8863 75.068 25.2493 73.488 25.8673 72.04C23.8793 69.565 22.8453 66.402 23.0163 63.225C23.0543 62.511 23.6693 61.964 24.3783 62.002C25.0923 62.04 25.6413 62.65 25.6023 63.364C25.4843 65.553 26.0813 67.733 27.2643 69.562C28.9313 67.252 31.3613 65.503 34.2603 64.687C34.9483 64.493 35.6633 64.893 35.8573 65.581C36.0513 66.269 35.6503 66.984 34.9623 67.178C32.1163 67.979 29.8373 69.904 28.5553 72.402Z" fill="#C0CCEE"/>
    <path d="M55.628 37C60.394 37 64.258 40.868 64.258 45.639C64.258 45.888 64.245 46.133 64.224 46.376C65.078 46.189 65.963 46.089 66.873 46.089C73.71 46.089 79.253 51.638 79.253 58.482C79.253 60.015 78.973 61.482 78.465 62.838C84.782 63.399 89.737 68.709 89.737 75.179C89.737 79.286 87.74 82.924 84.667 85.18C87.742 86.197 90.115 88.912 90.531 92.344C91.084 96.905 87.978 101.066 83.521 101.881C84.906 103.94 85.714 106.42 85.714 109.089C85.714 116.227 79.934 122.014 72.803 122.014C70.484 122.014 68.31 121.398 66.428 120.326C65.53 124.824 61.565 128.214 56.809 128.214C51.391 128.214 46.998 123.817 46.998 118.393V45.639C46.998 40.868 50.862 37 55.628 37Z" fill="#DEE4F8"/>
    <path d="M57.4221 97.306C57.7031 96.65 58.4631 96.344 59.1201 96.625C61.1001 97.47 62.7331 98.975 63.7401 100.871C65.6841 100.412 67.7181 100.584 69.5901 101.384C70.2481 101.665 70.5531 102.426 70.2731 103.083C69.9921 103.741 69.2291 104.045 68.5721 103.764C66.8941 103.047 65.0381 103.027 63.3461 103.705C61.6531 104.383 60.3291 105.679 59.6131 107.356C59.4351 107.774 59.2971 108.207 59.2061 108.648C59.0631 109.334 58.4011 109.78 57.7151 109.659C57.7021 109.656 57.6881 109.654 57.6741 109.651C56.9741 109.504 56.5261 108.82 56.6721 108.12C56.7981 107.512 56.9861 106.913 57.2321 106.338C58.0601 104.397 59.4851 102.827 61.3031 101.819C60.5661 100.571 59.4441 99.579 58.1031 99.005C57.4451 98.725 57.1411 97.964 57.4221 97.306Z" fill="#C0CCEE"/>
    <path d="M64.0384 72.402C64.0504 72.427 64.0624 72.452 64.0754 72.475C64.7364 73.789 65.1234 75.256 65.1744 76.802C65.2424 78.875 64.6964 80.895 63.5964 82.643C63.2154 83.248 63.3954 84.046 64.0004 84.427C64.2154 84.563 64.4534 84.626 64.6894 84.626C65.1194 84.626 65.5394 84.412 65.7864 84.022C67.1624 81.834 67.8464 79.31 67.7614 76.718C67.7074 75.068 67.3444 73.488 66.7264 72.04C68.7144 69.565 69.7484 66.402 69.5774 63.225C69.5394 62.511 68.9244 61.964 68.2154 62.002C67.5014 62.04 66.9524 62.65 66.9914 63.364C67.1094 65.553 66.5124 67.733 65.3294 69.562C63.6624 67.252 61.2324 65.503 58.3334 64.687C57.6454 64.493 56.9304 64.893 56.7364 65.581C56.5424 66.269 56.9434 66.984 57.6314 67.178C60.4774 67.979 62.7564 69.904 64.0384 72.402Z" fill="#C0CCEE"/>
</svg>
