<svg width="230" height="195" viewBox="0 0 230 195" fill="none" xmlns="http://www.w3.org/2000/svg">
    <path d="M113 163C121.837 163 129 170.163 129 179C129 187.837 121.837 195 113 195C104.164 195 97 187.837 97 179C97 170.163 104.164 163 113 163Z" fill="#BBC8EC"/>
    <path d="M225.827 141.004L3.05388 164.419C1.40596 164.592 0.210694 166.068 0.383898 167.716C0.557102 169.364 2.03313 170.559 3.68105 170.386L226.454 146.971C228.101 146.798 229.297 145.322 229.124 143.674C228.951 142.026 227.474 140.831 225.827 141.004Z" fill="#9BABD9"/>
    <path d="M154.388 50C163.555 50.001 172.009 54.901 176.5 62.819C180.992 54.901 189.446 50.001 198.613 50C212.633 50 224 62.884 224 76.774C224 111.66 176.5 136 176.5 136C176.5 136 129 111.66 129 76.774C129 62.884 140.367 50 154.388 50Z" fill="#DEE4F8"/>
    <path d="M138.079 23.8109C135.24 23.8109 132.948 21.5191 132.948 18.6805C132.948 18.361 132.698 18.1104 132.379 18.1104C132.059 18.1104 131.808 18.361 131.808 18.6805C131.808 21.5191 129.516 23.8109 126.678 23.8109C126.358 23.8109 126.107 24.0615 126.107 24.381C126.107 24.6997 126.358 24.9511 126.678 24.9511C129.516 24.9511 131.808 27.2421 131.808 30.0808C131.808 30.4003 132.059 30.6516 132.379 30.6516C132.698 30.6516 132.948 30.4003 132.948 30.0808C132.948 27.2421 135.24 24.9511 138.079 24.9511C138.398 24.9511 138.649 24.6997 138.649 24.381C138.649 24.0615 138.398 23.8109 138.079 23.8109Z" fill="#9BABD9"/>
    <path d="M95.8105 0.303223H95.1175C94.7022 0.303223 94.3562 0.602465 94.3562 1.00211C94.0102 5.69446 88.887 10.4862 84.0065 10.919C83.6264 10.9522 83.3145 11.2845 83.3145 11.651V12.349C83.3145 12.7486 83.6264 13.0478 84.0416 13.081C88.887 13.4143 93.8367 18.2393 94.3562 22.9316C94.3913 23.3644 94.7714 23.6968 95.2559 23.6968H95.7413C96.2257 23.6968 96.6059 23.3644 96.641 22.8985C97.0562 17.6408 101.452 13.3149 106.921 13.0478C107.371 13.0157 107.683 12.6823 107.683 12.2495V11.651C107.683 11.2183 107.337 10.8849 106.921 10.8518C101.417 10.5857 96.987 6.22667 96.641 0.901708C96.5718 0.602465 96.2257 0.303223 95.8105 0.303223Z" fill="#DEE4F8"/>
    <path d="M36.9648 59C32.1988 59 28.3348 62.868 28.3348 67.639C28.3348 67.888 28.3478 68.133 28.3688 68.376C27.5148 68.189 26.6298 68.089 25.7198 68.089C18.8818 68.089 13.3398 73.638 13.3398 80.482C13.3398 82.015 13.6198 83.482 14.1278 84.838C7.80976 85.399 2.85576 90.709 2.85576 97.179C2.85576 101.286 4.85276 104.924 7.92576 107.18C4.85076 108.197 2.47776 110.912 2.06176 114.344C1.50876 118.905 4.61476 123.066 9.07176 123.881C7.68676 125.94 6.87876 128.42 6.87876 131.089C6.87876 138.227 12.6588 144.014 19.7898 144.014C22.1088 144.014 24.2828 143.398 26.1648 142.326C27.0618 146.824 31.0278 150.214 35.7838 150.214C41.2018 150.214 45.5948 145.817 45.5948 140.393V67.639C45.5948 62.868 41.7308 59 36.9648 59Z" fill="#DEE4F8"/>
    <path d="M35.1708 119.306C34.8898 118.65 34.1288 118.344 33.4718 118.625C31.4918 119.47 29.8578 120.975 28.8508 122.871C26.9068 122.412 24.8738 122.584 23.0018 123.384C22.3438 123.665 22.0388 124.426 22.3188 125.083C22.6008 125.741 23.3618 126.045 24.0188 125.764C25.6968 125.047 27.5528 125.027 29.2448 125.705C30.9378 126.383 32.2628 127.679 32.9788 129.356C33.1568 129.774 33.2948 130.207 33.3858 130.648C33.5288 131.334 34.1908 131.78 34.8768 131.659C34.8898 131.656 34.9038 131.654 34.9178 131.651C35.6178 131.504 36.0668 130.82 35.9208 130.12C35.7948 129.512 35.6058 128.913 35.3598 128.338C34.5318 126.397 33.1068 124.827 31.2888 123.819C32.0258 122.571 33.1478 121.579 34.4888 121.005C35.1458 120.725 35.4518 119.964 35.1708 119.306Z" fill="#C0CCEE"/>
    <path d="M28.5553 94.402C28.5433 94.427 28.5313 94.452 28.5183 94.475C27.8573 95.789 27.4703 97.256 27.4193 98.802C27.3513 100.875 27.8973 102.895 28.9973 104.643C29.3783 105.248 29.1983 106.046 28.5933 106.427C28.3783 106.563 28.1403 106.626 27.9043 106.626C27.4743 106.626 27.0543 106.412 26.8073 106.022C25.4313 103.834 24.7473 101.31 24.8323 98.718C24.8863 97.068 25.2493 95.488 25.8673 94.04C23.8793 91.565 22.8453 88.402 23.0163 85.225C23.0543 84.511 23.6693 83.964 24.3783 84.002C25.0923 84.04 25.6413 84.65 25.6023 85.364C25.4843 87.553 26.0813 89.733 27.2643 91.562C28.9313 89.252 31.3613 87.503 34.2603 86.687C34.9483 86.493 35.6633 86.893 35.8573 87.581C36.0513 88.269 35.6503 88.984 34.9623 89.178C32.1163 89.979 29.8373 91.904 28.5553 94.402Z" fill="#C0CCEE"/>
    <path d="M55.628 59C60.394 59 64.258 62.868 64.258 67.639C64.258 67.888 64.245 68.133 64.224 68.376C65.078 68.189 65.963 68.089 66.873 68.089C73.71 68.089 79.253 73.638 79.253 80.482C79.253 82.015 78.973 83.482 78.465 84.838C84.782 85.399 89.737 90.709 89.737 97.179C89.737 101.286 87.74 104.924 84.667 107.18C87.742 108.197 90.115 110.912 90.531 114.344C91.084 118.905 87.978 123.066 83.521 123.881C84.906 125.94 85.714 128.42 85.714 131.089C85.714 138.227 79.934 144.014 72.803 144.014C70.484 144.014 68.31 143.398 66.428 142.326C65.53 146.824 61.565 150.214 56.809 150.214C51.391 150.214 46.998 145.817 46.998 140.393V67.639C46.998 62.868 50.862 59 55.628 59Z" fill="#DEE4F8"/>
    <path d="M57.4221 119.306C57.7031 118.65 58.4631 118.344 59.1201 118.625C61.1001 119.47 62.7331 120.975 63.7401 122.871C65.6841 122.412 67.7181 122.584 69.5901 123.384C70.2481 123.665 70.5531 124.426 70.2731 125.083C69.9921 125.741 69.2291 126.045 68.5721 125.764C66.8941 125.047 65.0381 125.027 63.3461 125.705C61.6531 126.383 60.3291 127.679 59.6131 129.356C59.4351 129.774 59.2971 130.207 59.2061 130.648C59.0631 131.334 58.4011 131.78 57.7151 131.659C57.7021 131.656 57.6881 131.654 57.6741 131.651C56.9741 131.504 56.5261 130.82 56.6721 130.12C56.7981 129.512 56.9861 128.913 57.2321 128.338C58.0601 126.397 59.4851 124.827 61.3031 123.819C60.5661 122.571 59.4441 121.579 58.1031 121.005C57.4451 120.725 57.1411 119.964 57.4221 119.306Z" fill="#C0CCEE"/>
    <path d="M64.0384 94.402C64.0504 94.427 64.0624 94.452 64.0754 94.475C64.7364 95.789 65.1234 97.256 65.1744 98.802C65.2424 100.875 64.6964 102.895 63.5964 104.643C63.2154 105.248 63.3954 106.046 64.0004 106.427C64.2154 106.563 64.4534 106.626 64.6894 106.626C65.1194 106.626 65.5394 106.412 65.7864 106.022C67.1624 103.834 67.8464 101.31 67.7614 98.718C67.7074 97.068 67.3444 95.488 66.7264 94.04C68.7144 91.565 69.7484 88.402 69.5774 85.225C69.5394 84.511 68.9244 83.964 68.2154 84.002C67.5014 84.04 66.9524 84.65 66.9914 85.364C67.1094 87.553 66.5124 89.733 65.3294 91.562C63.6624 89.252 61.2324 87.503 58.3334 86.687C57.6454 86.493 56.9304 86.893 56.7364 87.581C56.5424 88.269 56.9434 88.984 57.6314 89.178C60.4774 89.979 62.7564 91.904 64.0384 94.402Z" fill="#C0CCEE"/>
</svg>
