<svg width="231" height="192" viewBox="0 0 231 192" fill="none" xmlns="http://www.w3.org/2000/svg">
    <path d="M114 160C122.837 160 130 167.163 130 176C130 184.837 122.837 192 114 192C105.164 192 98 184.837 98 176C98 167.163 105.164 160 114 160Z" fill="#BBC8EC"/>
    <path d="M227.857 152.662H3.85742C2.20042 152.662 0.857422 154.005 0.857422 155.662C0.857422 157.319 2.20042 158.662 3.85742 158.662H227.857C229.513 158.662 230.857 157.319 230.857 155.662C230.857 154.005 229.513 152.662 227.857 152.662Z" fill="#9BABD9"/>
    <path d="M155.388 63C164.555 63.001 173.009 67.901 177.5 75.819C181.992 67.901 190.446 63.001 199.613 63C213.633 63 225 75.884 225 89.774C225 124.66 177.5 149 177.5 149C177.5 149 130 124.66 130 89.774C130 75.884 141.367 63 155.388 63Z" fill="#DEE4F8"/>
    <path d="M139.079 23.8109C136.24 23.8109 133.948 21.5191 133.948 18.6805C133.948 18.361 133.698 18.1104 133.379 18.1104C133.059 18.1104 132.808 18.361 132.808 18.6805C132.808 21.5191 130.516 23.8109 127.678 23.8109C127.358 23.8109 127.107 24.0615 127.107 24.381C127.107 24.6997 127.358 24.9511 127.678 24.9511C130.516 24.9511 132.808 27.2421 132.808 30.0808C132.808 30.4003 133.059 30.6516 133.379 30.6516C133.698 30.6516 133.948 30.4003 133.948 30.0808C133.948 27.2421 136.24 24.9511 139.079 24.9511C139.398 24.9511 139.649 24.6997 139.649 24.381C139.649 24.0615 139.398 23.8109 139.079 23.8109Z" fill="#9BABD9"/>
    <path d="M96.8105 0.303223H96.1175C95.7022 0.303223 95.3562 0.602465 95.3562 1.00211C95.0102 5.69446 89.887 10.4862 85.0065 10.919C84.6264 10.9522 84.3145 11.2845 84.3145 11.651V12.349C84.3145 12.7486 84.6264 13.0478 85.0416 13.081C89.887 13.4143 94.8367 18.2393 95.3562 22.9316C95.3913 23.3644 95.7714 23.6968 96.2559 23.6968H96.7413C97.2257 23.6968 97.6059 23.3644 97.641 22.8985C98.0562 17.6408 102.452 13.3149 107.921 13.0478C108.371 13.0157 108.683 12.6823 108.683 12.2495V11.651C108.683 11.2183 108.337 10.8849 107.921 10.8518C102.417 10.5857 97.987 6.22667 97.641 0.901708C97.5718 0.602465 97.2257 0.303223 96.8105 0.303223Z" fill="#DEE4F8"/>
    <path d="M37.9648 57C33.1988 57 29.3348 60.868 29.3348 65.639C29.3348 65.888 29.3478 66.133 29.3688 66.376C28.5148 66.189 27.6298 66.089 26.7198 66.089C19.8818 66.089 14.3398 71.638 14.3398 78.482C14.3398 80.015 14.6198 81.482 15.1278 82.838C8.80976 83.399 3.85576 88.709 3.85576 95.179C3.85576 99.286 5.85276 102.924 8.92576 105.18C5.85076 106.197 3.47776 108.912 3.06176 112.344C2.50876 116.905 5.61476 121.066 10.0718 121.881C8.68676 123.94 7.87876 126.42 7.87876 129.089C7.87876 136.227 13.6588 142.014 20.7898 142.014C23.1088 142.014 25.2828 141.398 27.1648 140.326C28.0618 144.824 32.0278 148.214 36.7838 148.214C42.2018 148.214 46.5948 143.817 46.5948 138.393V65.639C46.5948 60.868 42.7308 57 37.9648 57Z" fill="#DEE4F8"/>
    <path d="M36.1708 117.306C35.8898 116.65 35.1288 116.344 34.4718 116.625C32.4918 117.47 30.8578 118.975 29.8508 120.871C27.9068 120.412 25.8738 120.584 24.0018 121.384C23.3438 121.665 23.0388 122.426 23.3188 123.083C23.6008 123.741 24.3618 124.045 25.0188 123.764C26.6968 123.047 28.5528 123.027 30.2448 123.705C31.9378 124.383 33.2628 125.679 33.9788 127.356C34.1568 127.774 34.2948 128.207 34.3858 128.648C34.5288 129.334 35.1908 129.78 35.8768 129.659C35.8898 129.656 35.9038 129.654 35.9178 129.651C36.6178 129.504 37.0668 128.82 36.9208 128.12C36.7948 127.512 36.6058 126.913 36.3598 126.338C35.5318 124.397 34.1068 122.827 32.2888 121.819C33.0258 120.571 34.1478 119.579 35.4888 119.005C36.1458 118.725 36.4518 117.964 36.1708 117.306Z" fill="#C0CCEE"/>
    <path d="M29.5553 92.402C29.5433 92.427 29.5313 92.452 29.5183 92.475C28.8573 93.789 28.4703 95.256 28.4193 96.802C28.3513 98.875 28.8973 100.895 29.9973 102.643C30.3783 103.248 30.1983 104.046 29.5933 104.427C29.3783 104.563 29.1403 104.626 28.9043 104.626C28.4743 104.626 28.0543 104.412 27.8073 104.022C26.4313 101.834 25.7473 99.31 25.8323 96.718C25.8863 95.068 26.2493 93.488 26.8673 92.04C24.8793 89.565 23.8453 86.402 24.0163 83.225C24.0543 82.511 24.6693 81.964 25.3783 82.002C26.0923 82.04 26.6413 82.65 26.6023 83.364C26.4843 85.553 27.0813 87.733 28.2643 89.562C29.9313 87.252 32.3613 85.503 35.2603 84.687C35.9483 84.493 36.6633 84.893 36.8573 85.581C37.0513 86.269 36.6503 86.984 35.9623 87.178C33.1163 87.979 30.8373 89.904 29.5553 92.402Z" fill="#C0CCEE"/>
    <path d="M56.628 57C61.394 57 65.258 60.868 65.258 65.639C65.258 65.888 65.245 66.133 65.224 66.376C66.078 66.189 66.963 66.089 67.873 66.089C74.71 66.089 80.253 71.638 80.253 78.482C80.253 80.015 79.973 81.482 79.465 82.838C85.782 83.399 90.737 88.709 90.737 95.179C90.737 99.286 88.74 102.924 85.667 105.18C88.742 106.197 91.115 108.912 91.531 112.344C92.084 116.905 88.978 121.066 84.521 121.881C85.906 123.94 86.714 126.42 86.714 129.089C86.714 136.227 80.934 142.014 73.803 142.014C71.484 142.014 69.31 141.398 67.428 140.326C66.53 144.824 62.565 148.214 57.809 148.214C52.391 148.214 47.998 143.817 47.998 138.393V65.639C47.998 60.868 51.862 57 56.628 57Z" fill="#DEE4F8"/>
    <path d="M58.4221 117.306C58.7031 116.65 59.4631 116.344 60.1201 116.625C62.1001 117.47 63.7331 118.975 64.7401 120.871C66.6841 120.412 68.7181 120.584 70.5901 121.384C71.2481 121.665 71.5531 122.426 71.2731 123.083C70.9921 123.741 70.2291 124.045 69.5721 123.764C67.8941 123.047 66.0381 123.027 64.3461 123.705C62.6531 124.383 61.3291 125.679 60.6131 127.356C60.4351 127.774 60.2971 128.207 60.2061 128.648C60.0631 129.334 59.4011 129.78 58.7151 129.659C58.7021 129.656 58.6881 129.654 58.6741 129.651C57.9741 129.504 57.5261 128.82 57.6721 128.12C57.7981 127.512 57.9861 126.913 58.2321 126.338C59.0601 124.397 60.4851 122.827 62.3031 121.819C61.5661 120.571 60.4441 119.579 59.1031 119.005C58.4451 118.725 58.1411 117.964 58.4221 117.306Z" fill="#C0CCEE"/>
    <path d="M65.0384 92.402C65.0504 92.427 65.0624 92.452 65.0754 92.475C65.7364 93.789 66.1234 95.256 66.1744 96.802C66.2424 98.875 65.6964 100.895 64.5964 102.643C64.2154 103.248 64.3954 104.046 65.0004 104.427C65.2154 104.563 65.4534 104.626 65.6894 104.626C66.1194 104.626 66.5394 104.412 66.7864 104.022C68.1624 101.834 68.8464 99.31 68.7614 96.718C68.7074 95.068 68.3444 93.488 67.7264 92.04C69.7144 89.565 70.7484 86.402 70.5774 83.225C70.5394 82.511 69.9244 81.964 69.2154 82.002C68.5014 82.04 67.9524 82.65 67.9914 83.364C68.1094 85.553 67.5124 87.733 66.3294 89.562C64.6624 87.252 62.2324 85.503 59.3334 84.687C58.6454 84.493 57.9304 84.893 57.7364 85.581C57.5424 86.269 57.9434 86.984 58.6314 87.178C61.4774 87.979 63.7564 89.904 65.0384 92.402Z" fill="#C0CCEE"/>
</svg>
