<svg width="90" height="92" viewBox="0 0 90 92" fill="none" xmlns="http://www.w3.org/2000/svg">
    <path d="M35.9648 0C31.1988 0 27.3348 3.868 27.3348 8.639C27.3348 8.888 27.3478 9.133 27.3688 9.376C26.5148 9.189 25.6298 9.089 24.7198 9.089C17.8818 9.089 12.3398 14.638 12.3398 21.482C12.3398 23.015 12.6198 24.482 13.1278 25.838C6.80976 26.399 1.85576 31.709 1.85576 38.179C1.85576 42.286 3.85276 45.924 6.92576 48.18C3.85076 49.197 1.47776 51.912 1.06176 55.344C0.508764 59.905 3.61476 64.066 8.07176 64.881C6.68676 66.94 5.87876 69.42 5.87876 72.089C5.87876 79.227 11.6588 85.014 18.7898 85.014C21.1088 85.014 23.2828 84.398 25.1648 83.326C26.0618 87.824 30.0278 91.214 34.7838 91.214C40.2018 91.214 44.5948 86.817 44.5948 81.393V8.639C44.5948 3.868 40.7308 0 35.9648 0Z" fill="#DEE4F8"/>
    <path d="M34.1708 60.306C33.8898 59.65 33.1288 59.344 32.4718 59.625C30.4918 60.47 28.8578 61.975 27.8508 63.871C25.9068 63.412 23.8738 63.584 22.0018 64.384C21.3438 64.665 21.0388 65.426 21.3188 66.083C21.6008 66.741 22.3618 67.045 23.0188 66.764C24.6968 66.047 26.5528 66.027 28.2448 66.705C29.9378 67.383 31.2628 68.679 31.9788 70.356C32.1568 70.774 32.2948 71.207 32.3858 71.648C32.5288 72.334 33.1908 72.78 33.8768 72.659C33.8898 72.656 33.9038 72.654 33.9178 72.651C34.6178 72.504 35.0668 71.82 34.9208 71.12C34.7948 70.512 34.6058 69.913 34.3598 69.338C33.5318 67.397 32.1068 65.827 30.2888 64.819C31.0258 63.571 32.1478 62.579 33.4888 62.005C34.1458 61.725 34.4518 60.964 34.1708 60.306Z" fill="#C0CCEE"/>
    <path d="M27.5553 35.402C27.5433 35.427 27.5313 35.452 27.5183 35.475C26.8573 36.789 26.4703 38.256 26.4193 39.802C26.3513 41.875 26.8973 43.895 27.9973 45.643C28.3783 46.248 28.1983 47.046 27.5933 47.427C27.3783 47.563 27.1403 47.626 26.9043 47.626C26.4743 47.626 26.0543 47.412 25.8073 47.022C24.4313 44.834 23.7473 42.31 23.8323 39.718C23.8863 38.068 24.2493 36.488 24.8673 35.04C22.8793 32.565 21.8453 29.402 22.0163 26.225C22.0543 25.511 22.6693 24.964 23.3783 25.002C24.0923 25.04 24.6413 25.65 24.6023 26.364C24.4843 28.553 25.0813 30.733 26.2643 32.562C27.9313 30.252 30.3613 28.503 33.2603 27.687C33.9483 27.493 34.6633 27.893 34.8573 28.581C35.0513 29.269 34.6503 29.984 33.9623 30.178C31.1163 30.979 28.8373 32.904 27.5553 35.402Z" fill="#C0CCEE"/>
    <path d="M54.628 0C59.394 0 63.258 3.868 63.258 8.639C63.258 8.888 63.245 9.133 63.224 9.376C64.078 9.189 64.963 9.089 65.873 9.089C72.71 9.089 78.253 14.638 78.253 21.482C78.253 23.015 77.973 24.482 77.465 25.838C83.782 26.399 88.737 31.709 88.737 38.179C88.737 42.286 86.74 45.924 83.667 48.18C86.742 49.197 89.115 51.912 89.531 55.344C90.084 59.905 86.978 64.066 82.521 64.881C83.906 66.94 84.714 69.42 84.714 72.089C84.714 79.227 78.934 85.014 71.803 85.014C69.484 85.014 67.31 84.398 65.428 83.326C64.53 87.824 60.565 91.214 55.809 91.214C50.391 91.214 45.998 86.817 45.998 81.393V8.639C45.998 3.868 49.862 0 54.628 0Z" fill="#DEE4F8"/>
    <path d="M56.4221 60.306C56.7031 59.65 57.4631 59.344 58.1201 59.625C60.1001 60.47 61.7331 61.975 62.7401 63.871C64.6841 63.412 66.7181 63.584 68.5901 64.384C69.2481 64.665 69.5531 65.426 69.2731 66.083C68.9921 66.741 68.2291 67.045 67.5721 66.764C65.8941 66.047 64.0381 66.027 62.3461 66.705C60.6531 67.383 59.3291 68.679 58.6131 70.356C58.4351 70.774 58.2971 71.207 58.2061 71.648C58.0631 72.334 57.4011 72.78 56.7151 72.659C56.7021 72.656 56.6881 72.654 56.6741 72.651C55.9741 72.504 55.5261 71.82 55.6721 71.12C55.7981 70.512 55.9861 69.913 56.2321 69.338C57.0601 67.397 58.4851 65.827 60.3031 64.819C59.5661 63.571 58.4441 62.579 57.1031 62.005C56.4451 61.725 56.1411 60.964 56.4221 60.306Z" fill="#C0CCEE"/>
    <path d="M63.0384 35.402C63.0504 35.427 63.0624 35.452 63.0754 35.475C63.7364 36.789 64.1234 38.256 64.1744 39.802C64.2424 41.875 63.6964 43.895 62.5964 45.643C62.2154 46.248 62.3954 47.046 63.0004 47.427C63.2154 47.563 63.4534 47.626 63.6894 47.626C64.1194 47.626 64.5394 47.412 64.7864 47.022C66.1624 44.834 66.8464 42.31 66.7614 39.718C66.7074 38.068 66.3444 36.488 65.7264 35.04C67.7144 32.565 68.7484 29.402 68.5774 26.225C68.5394 25.511 67.9244 24.964 67.2154 25.002C66.5014 25.04 65.9524 25.65 65.9914 26.364C66.1094 28.553 65.5124 30.733 64.3294 32.562C62.6624 30.252 60.2324 28.503 57.3334 27.687C56.6454 27.493 55.9304 27.893 55.7364 28.581C55.5424 29.269 55.9434 29.984 56.6314 30.178C59.4774 30.979 61.7564 32.904 63.0384 35.402Z" fill="#C0CCEE"/>
</svg>
