<svg width="56" height="31" viewBox="0 0 56 31" fill="none" xmlns="http://www.w3.org/2000/svg">
    <path d="M55.0786 23.8109C52.2399 23.8109 49.9482 21.5191 49.9482 18.6805C49.9482 18.361 49.6976 18.1104 49.3788 18.1104C49.0593 18.1104 48.8079 18.361 48.8079 18.6805C48.8079 21.5191 46.5162 23.8109 43.6775 23.8109C43.3581 23.8109 43.1074 24.0615 43.1074 24.381C43.1074 24.6997 43.3581 24.9511 43.6775 24.9511C46.5162 24.9511 48.8079 27.2421 48.8079 30.0808C48.8079 30.4003 49.0593 30.6516 49.3788 30.6516C49.6976 30.6516 49.9482 30.4003 49.9482 30.0808C49.9482 27.2421 52.2399 24.9511 55.0786 24.9511C55.3981 24.9511 55.6487 24.6997 55.6487 24.381C55.6487 24.0615 55.3981 23.8109 55.0786 23.8109Z" fill="#9BABD9"/>
    <path d="M12.8105 0.303223H12.1175C11.7022 0.303223 11.3562 0.602465 11.3562 1.00211C11.0102 5.69446 5.88699 10.4862 1.00651 10.919C0.626367 10.9522 0.314453 11.2845 0.314453 11.651V12.349C0.314453 12.7486 0.626367 13.0478 1.0416 13.081C5.88699 13.4143 10.8367 18.2393 11.3562 22.9316C11.3913 23.3644 11.7714 23.6968 12.2559 23.6968H12.7413C13.2257 23.6968 13.6059 23.3644 13.641 22.8985C14.0562 17.6408 18.4523 13.3149 23.9215 13.0478C24.3708 13.0157 24.6827 12.6823 24.6827 12.2495V11.651C24.6827 11.2183 24.3367 10.8849 23.9215 10.8518C18.4172 10.5857 13.987 6.22667 13.641 0.901708C13.5718 0.602465 13.2257 0.303223 12.8105 0.303223Z" fill="#DEE4F8"/>
</svg>
